<svg width="90" height="34" viewBox="0 0 90 34" fill="none" xmlns="http://www.w3.org/2000/svg">
<g filter="url(#filter0_d_1_2)">
<path d="M16.9222 2.706H19.7042V3.603H16.9222V2.706ZM13.8282 0.847H14.7122V2.082C14.7122 2.82733 14.5779 3.525 14.3092 4.175C14.0406 4.81633 13.6636 5.37967 13.1782 5.865C12.7016 6.34167 12.1339 6.70567 11.4752 6.957L10.9032 6.086C11.5012 5.878 12.0169 5.57467 12.4502 5.176C12.8922 4.76867 13.2302 4.30067 13.4642 3.772C13.7069 3.23467 13.8282 2.67133 13.8282 2.082V0.847ZM14.0232 0.847H14.8942V2.134C14.8942 2.53267 14.9636 2.92267 15.1022 3.304C15.2409 3.68533 15.4359 4.04067 15.6872 4.37C15.9386 4.69067 16.2376 4.981 16.5842 5.241C16.9396 5.49233 17.3296 5.69167 17.7542 5.839L17.1822 6.697C16.5496 6.45433 15.9949 6.10767 15.5182 5.657C15.0416 5.19767 14.6732 4.669 14.4132 4.071C14.1532 3.46433 14.0232 2.81867 14.0232 2.134V0.847ZM12.7102 7.854H20.5622V12.014H19.4832V8.725H12.7102V7.854ZM19.4832 0.249H20.5622V7.204H19.4832V0.249ZM25.8912 7.256H26.9702V9.167H25.8912V7.256ZM30.8312 0.249H31.9102V12.014H30.8312V0.249ZM31.5722 5.241H33.7432V6.151H31.5722V5.241ZM22.8752 9.778L22.7062 8.868C23.4169 8.868 24.1882 8.86367 25.0202 8.855C25.8609 8.83767 26.7189 8.803 27.5942 8.751C28.4696 8.699 29.3146 8.61667 30.1292 8.504L30.2072 9.297C29.3666 9.44433 28.5086 9.55267 27.6332 9.622C26.7666 9.69133 25.9259 9.73467 25.1112 9.752C24.3052 9.76933 23.5599 9.778 22.8752 9.778ZM22.9142 1.679H29.9342V2.55H22.9142V1.679ZM26.4372 3.226C26.9832 3.226 27.4642 3.317 27.8802 3.499C28.2962 3.681 28.6212 3.93667 28.8552 4.266C29.0892 4.58667 29.2062 4.968 29.2062 5.41C29.2062 5.84333 29.0892 6.22467 28.8552 6.554C28.6212 6.88333 28.2962 7.139 27.8802 7.321C27.4642 7.49433 26.9832 7.581 26.4372 7.581C25.8912 7.581 25.4059 7.49433 24.9812 7.321C24.5652 7.139 24.2402 6.88333 24.0062 6.554C23.7809 6.22467 23.6682 5.84333 23.6682 5.41C23.6682 4.968 23.7809 4.58667 24.0062 4.266C24.2402 3.93667 24.5652 3.681 24.9812 3.499C25.4059 3.317 25.8912 3.226 26.4372 3.226ZM26.4372 4.071C25.9086 4.071 25.4839 4.19233 25.1632 4.435C24.8426 4.67767 24.6822 5.00267 24.6822 5.41C24.6822 5.80867 24.8426 6.12933 25.1632 6.372C25.4839 6.61467 25.9086 6.736 26.4372 6.736C26.9572 6.736 27.3776 6.61467 27.6982 6.372C28.0189 6.12933 28.1792 5.80867 28.1792 5.41C28.1792 5.00267 28.0189 4.67767 27.6982 4.435C27.3776 4.19233 26.9572 4.071 26.4372 4.071ZM25.8912 0.274999H26.9702V2.251H25.8912V0.274999ZM38.6172 1.107C39.2325 1.107 39.7742 1.224 40.2422 1.458C40.7189 1.68333 41.0915 2.004 41.3602 2.42C41.6289 2.836 41.7632 3.32133 41.7632 3.876C41.7632 4.422 41.6289 4.90733 41.3602 5.332C41.0915 5.748 40.7189 6.073 40.2422 6.307C39.7742 6.53233 39.2325 6.645 38.6172 6.645C38.0105 6.645 37.4689 6.53233 36.9922 6.307C36.5155 6.073 36.1385 5.748 35.8612 5.332C35.5925 4.90733 35.4582 4.422 35.4582 3.876C35.4582 3.32133 35.5925 2.836 35.8612 2.42C36.1385 2.004 36.5155 1.68333 36.9922 1.458C37.4689 1.224 38.0105 1.107 38.6172 1.107ZM38.6172 2.043C38.2185 2.043 37.8589 2.121 37.5382 2.277C37.2262 2.42433 36.9792 2.63667 36.7972 2.914C36.6152 3.19133 36.5242 3.512 36.5242 3.876C36.5242 4.24 36.6152 4.56067 36.7972 4.838C36.9792 5.11533 37.2262 5.332 37.5382 5.488C37.8589 5.63533 38.2185 5.709 38.6172 5.709C39.0245 5.709 39.3842 5.63533 39.6962 5.488C40.0082 5.332 40.2552 5.11533 40.4372 4.838C40.6192 4.56067 40.7102 4.24 40.7102 3.876C40.7102 3.512 40.6192 3.19133 40.4372 2.914C40.2552 2.63667 40.0082 2.42433 39.6962 2.277C39.3842 2.121 39.0245 2.043 38.6172 2.043ZM43.3102 0.249H44.3892V12.027H43.3102V0.249ZM35.0162 9.453L34.8732 8.543C35.5925 8.543 36.3812 8.53867 37.2392 8.53C38.0972 8.51267 38.9812 8.478 39.8912 8.426C40.8099 8.36533 41.6939 8.27 42.5432 8.14L42.6342 8.933C41.7502 9.09767 40.8532 9.219 39.9432 9.297C39.0419 9.36633 38.1709 9.40967 37.3302 9.427C36.4895 9.44433 35.7182 9.453 35.0162 9.453ZM56.9844 10.4541L53.8359 10.8604L53.4551 9.42578H52.0078L51.6904 10.8604L48.4531 10.543L50.9795 2.08789L54.5088 1.91016L56.9844 10.4541ZM53.2266 7.4834L52.7441 5.27441L52.2744 7.4834H53.2266ZM64.4556 2.0625C64.2651 3.55208 64.1022 5.03532 63.9668 6.51221C63.8314 7.98486 63.7023 9.4681 63.5796 10.9619L60.9771 11.1523L61.0913 10.1748C61.0067 10.2721 60.9072 10.3568 60.793 10.4287C60.6829 10.5007 60.5645 10.5599 60.4375 10.6064C60.3105 10.6488 60.1794 10.6805 60.0439 10.7017C59.9085 10.7186 59.7795 10.7249 59.6567 10.7207C59.369 10.7165 59.0981 10.6615 58.8442 10.5557C58.5903 10.4456 58.3576 10.3018 58.146 10.124C57.9344 9.94206 57.744 9.73258 57.5747 9.49561C57.4054 9.25439 57.2616 9.0026 57.1431 8.74023C57.0288 8.47363 56.9399 8.2028 56.8765 7.92773C56.8172 7.65267 56.7876 7.38607 56.7876 7.12793C56.7876 6.74707 56.7939 6.35352 56.8066 5.94727C56.8236 5.53678 56.8511 5.1263 56.8892 4.71582C56.9272 4.30534 56.9759 3.89909 57.0352 3.49707C57.0986 3.09505 57.1769 2.70996 57.27 2.3418C57.7863 2.36719 58.3047 2.39046 58.8252 2.41162C59.3457 2.43278 59.8641 2.43913 60.3804 2.43066C60.283 2.79883 60.1857 3.16911 60.0884 3.5415C59.9953 3.90967 59.9106 4.28206 59.8345 4.65869C59.7583 5.03109 59.6969 5.4056 59.6504 5.78223C59.6038 6.15885 59.5806 6.53971 59.5806 6.9248C59.5806 7.01367 59.5848 7.14062 59.5933 7.30566C59.6017 7.4707 59.6229 7.63363 59.6567 7.79443C59.6948 7.95524 59.7498 8.09701 59.8218 8.21973C59.8979 8.33822 60.0037 8.39746 60.1392 8.39746C60.3 8.39746 60.4438 8.32975 60.5708 8.19434C60.6978 8.05469 60.8099 7.86849 60.9072 7.63574C61.0046 7.40299 61.0871 7.13428 61.1548 6.82959C61.2267 6.5249 61.286 6.20752 61.3325 5.87744C61.3833 5.54313 61.4235 5.20671 61.4531 4.86816C61.4827 4.52962 61.5039 4.21224 61.5166 3.91602C61.5335 3.61556 61.5441 3.34684 61.5483 3.10986C61.5568 2.87288 61.561 2.6888 61.561 2.55762C61.561 2.47298 61.5589 2.39046 61.5547 2.31006C61.5505 2.22965 61.5441 2.14714 61.5356 2.0625C61.8107 2.07096 62.0837 2.07731 62.3545 2.08154C62.6253 2.08577 62.8983 2.08789 63.1733 2.08789C63.3849 2.08789 63.5965 2.08789 63.8081 2.08789C64.0239 2.08366 64.2397 2.0752 64.4556 2.0625ZM71.5586 2.0498L71.4951 4.74121L69.6035 4.81738L69.375 10.708L66.6963 10.8477L66.4551 4.95703L64.5635 5.05859L64.6396 2.0625L71.5586 2.0498ZM79.6392 6.1377C79.6392 6.52279 79.5947 6.89518 79.5059 7.25488C79.417 7.61035 79.2879 7.94466 79.1187 8.25781C78.9536 8.57096 78.7505 8.85872 78.5093 9.12109C78.2723 9.37923 78.0036 9.6014 77.7031 9.7876C77.4069 9.9738 77.0832 10.1198 76.7319 10.2256C76.3807 10.3271 76.0083 10.3779 75.6147 10.3779C75.2339 10.3779 74.87 10.3293 74.5229 10.2319C74.1802 10.1346 73.8586 9.99919 73.5581 9.82568C73.2576 9.64795 72.9847 9.43636 72.7393 9.19092C72.498 8.94124 72.2907 8.66618 72.1172 8.36572C71.9479 8.06104 71.8146 7.73519 71.7173 7.38818C71.6242 7.04118 71.5776 6.67936 71.5776 6.30273C71.5776 5.93457 71.6221 5.57487 71.7109 5.22363C71.7998 4.86816 71.9268 4.53385 72.0918 4.2207C72.2611 3.90755 72.4642 3.61979 72.7012 3.35742C72.9382 3.09505 73.2026 2.86865 73.4946 2.67822C73.7909 2.48779 74.1104 2.33968 74.4531 2.23389C74.7959 2.12809 75.1577 2.0752 75.5386 2.0752C76.1522 2.0752 76.7108 2.17041 77.2144 2.36084C77.7222 2.55127 78.1538 2.82422 78.5093 3.17969C78.869 3.53092 79.1462 3.95833 79.3408 4.46191C79.5397 4.96126 79.6392 5.51986 79.6392 6.1377ZM76.8208 6.30273C76.8208 6.12077 76.7933 5.94515 76.7383 5.77588C76.6875 5.60238 76.6113 5.45003 76.5098 5.31885C76.4082 5.18343 76.2812 5.07552 76.1289 4.99512C75.9808 4.91048 75.8094 4.86816 75.6147 4.86816C75.4159 4.86816 75.2381 4.90413 75.0815 4.97607C74.925 5.04801 74.7896 5.14746 74.6753 5.27441C74.5653 5.39714 74.4806 5.54313 74.4214 5.7124C74.3621 5.87744 74.3325 6.05306 74.3325 6.23926C74.3325 6.41699 74.3579 6.59473 74.4087 6.77246C74.4595 6.9502 74.5356 7.111 74.6372 7.25488C74.7388 7.39876 74.8636 7.51514 75.0117 7.604C75.1641 7.69287 75.3397 7.7373 75.5386 7.7373C75.7375 7.7373 75.9152 7.69922 76.0718 7.62305C76.2326 7.54264 76.368 7.43685 76.478 7.30566C76.5881 7.17025 76.6727 7.01579 76.7319 6.84229C76.7912 6.66878 76.8208 6.48893 76.8208 6.30273ZM7.62866 20.269H8.70766V25.014H7.62866V20.269ZM11.6847 20.269H12.7637V25.014H11.6847V20.269ZM6.32866 17.539H14.1807V18.436H6.32866V17.539ZM4.85966 19.996H15.5197V20.88H4.85966V19.996ZM6.32866 13.873H14.0247V14.757H7.42066V17.994H6.32866V13.873ZM17.5726 21.283H18.5086C19.2453 21.283 19.917 21.2743 20.5236 21.257C21.139 21.2397 21.7283 21.205 22.2916 21.153C22.8636 21.101 23.4486 21.023 24.0466 20.919L24.1636 21.803C23.5483 21.907 22.9503 21.9893 22.3696 22.05C21.789 22.102 21.1866 22.1367 20.5626 22.154C19.9473 22.1713 19.2626 22.18 18.5086 22.18H17.5726V21.283ZM17.5726 14.315H23.2666V15.212H18.6386V21.595H17.5726V14.315ZM18.3786 17.617H22.8376V18.488H18.3786V17.617ZM25.3986 13.249H26.4776V25.014H25.3986V13.249ZM31.7416 19.619H32.8206V22.973H31.7416V19.619ZM35.3556 19.632H36.4346V22.986H35.3556V19.632ZM28.7906 22.687H39.4506V23.584H28.7906V22.687ZM29.7266 14.341H38.4496V15.225H29.7266V14.341ZM29.7526 19.034H38.4236V19.918H29.7526V19.034ZM31.5466 15.056H32.6256V19.216H31.5466V15.056ZM35.5506 15.056H36.6166V19.216H35.5506V15.056ZM45.7457 13.99H46.6037V15.563C46.6037 16.1437 46.4953 16.72 46.2787 17.292C46.062 17.864 45.75 18.3797 45.3427 18.839C44.944 19.2983 44.4543 19.658 43.8737 19.918L43.2887 19.086C43.8 18.8607 44.2377 18.5573 44.6017 18.176C44.9743 17.786 45.256 17.3613 45.4467 16.902C45.646 16.4427 45.7457 15.9963 45.7457 15.563V13.99ZM45.9277 13.99H46.7857V15.563C46.7857 15.9877 46.8767 16.4123 47.0587 16.837C47.2493 17.253 47.5223 17.63 47.8777 17.968C48.2417 18.2973 48.6707 18.5617 49.1647 18.761L48.5927 19.593C48.0293 19.3677 47.5483 19.047 47.1497 18.631C46.751 18.215 46.4477 17.7427 46.2397 17.214C46.0317 16.6853 45.9277 16.135 45.9277 15.563V13.99ZM52.1677 13.262H53.1947V20.516H52.1677V13.262ZM50.2957 16.408H52.5057V17.292H50.2957V16.408ZM49.6457 13.483H50.6597V20.139H49.6457V13.483ZM49.3337 20.776C50.1397 20.776 50.833 20.8583 51.4137 21.023C52.003 21.1877 52.458 21.4303 52.7787 21.751C53.0993 22.063 53.2597 22.44 53.2597 22.882C53.2597 23.324 53.0993 23.701 52.7787 24.013C52.458 24.3337 52.003 24.5763 51.4137 24.741C50.833 24.9057 50.1397 24.988 49.3337 24.988C48.5277 24.988 47.83 24.9057 47.2407 24.741C46.6513 24.5763 46.1963 24.3337 45.8757 24.013C45.5637 23.701 45.4077 23.324 45.4077 22.882C45.4077 22.44 45.5637 22.063 45.8757 21.751C46.1963 21.4303 46.6513 21.1877 47.2407 21.023C47.83 20.8583 48.5277 20.776 49.3337 20.776ZM49.3337 21.608C48.4497 21.608 47.752 21.7207 47.2407 21.946C46.7293 22.1713 46.4737 22.4833 46.4737 22.882C46.4737 23.2807 46.7293 23.5927 47.2407 23.818C47.752 24.0433 48.4497 24.156 49.3337 24.156C49.923 24.156 50.43 24.104 50.8547 24C51.2793 23.9047 51.6043 23.7617 51.8297 23.571C52.0637 23.3803 52.1807 23.1507 52.1807 22.882C52.1807 22.4833 51.925 22.1713 51.4137 21.946C50.911 21.7207 50.2177 21.608 49.3337 21.608ZM58.2117 13.912H59.1087V15.121C59.1087 15.8837 58.97 16.5857 58.6927 17.227C58.424 17.8683 58.0427 18.4317 57.5487 18.917C57.0633 19.3937 56.4827 19.7577 55.8067 20.009L55.2347 19.138C55.8413 18.9213 56.3657 18.6137 56.8077 18.215C57.2497 17.8163 57.592 17.3527 57.8347 16.824C58.086 16.2867 58.2117 15.719 58.2117 15.121V13.912ZM58.4067 13.912H59.2777V15.082C59.2777 15.6367 59.399 16.161 59.6417 16.655C59.8843 17.149 60.218 17.5867 60.6427 17.968C61.076 18.3407 61.5787 18.6223 62.1507 18.813L61.5657 19.658C60.933 19.4153 60.3783 19.073 59.9017 18.631C59.425 18.189 59.0567 17.6647 58.7967 17.058C58.5367 16.4513 58.4067 15.7927 58.4067 15.082V13.912ZM63.8407 13.249H64.9197V20.204H63.8407V13.249ZM61.0457 20.555C62.259 20.555 63.2123 20.75 63.9057 21.14C64.6077 21.53 64.9587 22.076 64.9587 22.778C64.9587 23.4713 64.6077 24.013 63.9057 24.403C63.2123 24.793 62.259 24.988 61.0457 24.988C59.8323 24.988 58.8747 24.793 58.1727 24.403C57.4793 24.013 57.1327 23.4713 57.1327 22.778C57.1327 22.076 57.4793 21.53 58.1727 21.14C58.8747 20.75 59.8323 20.555 61.0457 20.555ZM61.0457 21.413C60.4563 21.413 59.9493 21.4693 59.5247 21.582C59.1 21.686 58.7707 21.842 58.5367 22.05C58.3113 22.2493 58.1987 22.492 58.1987 22.778C58.1987 23.0553 58.3113 23.298 58.5367 23.506C58.7707 23.7053 59.1 23.8613 59.5247 23.974C59.9493 24.078 60.4563 24.13 61.0457 24.13C61.6437 24.13 62.1507 24.078 62.5667 23.974C62.9913 23.8613 63.3163 23.7053 63.5417 23.506C63.7757 23.298 63.8927 23.0553 63.8927 22.778C63.8927 22.492 63.7757 22.2493 63.5417 22.05C63.3163 21.842 62.9913 21.686 62.5667 21.582C62.1507 21.4693 61.6437 21.413 61.0457 21.413ZM61.2797 15.732H64.0617V16.629H61.2797V15.732ZM75.7736 13.249H76.8526V25.014H75.7736V13.249ZM72.3286 14.523H73.3946C73.3946 15.3723 73.2906 16.1913 73.0826 16.98C72.8833 17.7687 72.567 18.5183 72.1336 19.229C71.7003 19.931 71.137 20.5853 70.4436 21.192C69.7503 21.7987 68.9096 22.3403 67.9216 22.817L67.3496 21.946C68.485 21.4 69.421 20.763 70.1576 20.035C70.8943 19.307 71.4403 18.4967 71.7956 17.604C72.151 16.7027 72.3286 15.732 72.3286 14.692V14.523ZM67.8956 14.523H72.7836V15.394H67.8956V14.523ZM81.9497 14.5674L81.4292 21.2451H79.0806L78.8394 14.5674H81.9497ZM81.5308 23.2002C81.5308 23.3864 81.4948 23.5599 81.4229 23.7207C81.3509 23.8815 81.2536 24.0212 81.1309 24.1396C81.0124 24.2624 80.8727 24.3576 80.7119 24.4253C80.5511 24.4972 80.3797 24.5332 80.1978 24.5332C80.0116 24.5332 79.8381 24.4972 79.6772 24.4253C79.5164 24.3576 79.3747 24.2624 79.252 24.1396C79.1335 24.0212 79.0382 23.8815 78.9663 23.7207C78.8986 23.5599 78.8647 23.3864 78.8647 23.2002C78.8647 23.0182 78.8986 22.8447 78.9663 22.6797C79.0382 22.5146 79.1335 22.3729 79.252 22.2544C79.3747 22.1317 79.5164 22.0343 79.6772 21.9624C79.8381 21.8905 80.0116 21.8545 80.1978 21.8545C80.3797 21.8545 80.5511 21.8905 80.7119 21.9624C80.8727 22.0343 81.0124 22.1317 81.1309 22.2544C81.2536 22.3729 81.3509 22.5146 81.4229 22.6797C81.4948 22.8447 81.5308 23.0182 81.5308 23.2002ZM85.5806 14.5674L85.0601 21.2451H82.7114L82.4702 14.5674H85.5806ZM85.1616 23.2002C85.1616 23.3864 85.1257 23.5599 85.0537 23.7207C84.9818 23.8815 84.8844 24.0212 84.7617 24.1396C84.6432 24.2624 84.5036 24.3576 84.3428 24.4253C84.182 24.4972 84.0106 24.5332 83.8286 24.5332C83.6424 24.5332 83.4689 24.4972 83.3081 24.4253C83.1473 24.3576 83.0055 24.2624 82.8828 24.1396C82.7643 24.0212 82.6691 23.8815 82.5972 23.7207C82.5295 23.5599 82.4956 23.3864 82.4956 23.2002C82.4956 23.0182 82.5295 22.8447 82.5972 22.6797C82.6691 22.5146 82.7643 22.3729 82.8828 22.2544C83.0055 22.1317 83.1473 22.0343 83.3081 21.9624C83.4689 21.8905 83.6424 21.8545 83.8286 21.8545C84.0106 21.8545 84.182 21.8905 84.3428 21.9624C84.5036 22.0343 84.6432 22.1317 84.7617 22.2544C84.8844 22.3729 84.9818 22.5146 85.0537 22.6797C85.1257 22.8447 85.1616 23.0182 85.1616 23.2002Z" fill="black"/>
</g>
<defs>
<filter id="filter0_d_1_2" x="0.85965" y="0.248993" width="88.7209" height="32.765" filterUnits="userSpaceOnUse" color-interpolation-filters="sRGB">
<feFlood flood-opacity="0" result="BackgroundImageFix"/>
<feColorMatrix in="SourceAlpha" type="matrix" values="0 0 0 0 0 0 0 0 0 0 0 0 0 0 0 0 0 0 127 0" result="hardAlpha"/>
<feOffset dy="4"/>
<feGaussianBlur stdDeviation="2"/>
<feComposite in2="hardAlpha" operator="out"/>
<feColorMatrix type="matrix" values="0 0 0 0 0 0 0 0 0 0 0 0 0 0 0 0 0 0 0.25 0"/>
<feBlend mode="normal" in2="BackgroundImageFix" result="effect1_dropShadow_1_2"/>
<feBlend mode="normal" in="SourceGraphic" in2="effect1_dropShadow_1_2" result="shape"/>
</filter>
</defs>
</svg>
